<svg width="293" height="258" viewBox="0 0 293 258" fill="none" xmlns="http://www.w3.org/2000/svg">
<path d="M148.332 61.5815C154.99 61.5815 161.15 60.2695 167.401 59.6588C178.001 58.7517 188.676 59.3354 199.114 61.393C213.259 64.0697 229.583 70.2449 243.02 83.5153C254.005 94.3578 260.693 107.779 264.132 120.13C267.674 132.695 268.4 145.887 266.258 158.765C264.637 168.242 261.462 176.928 256.215 183.647C232.667 211.168 140.295 201.81 116.581 192.235C41.1059 168.499 -1.4574 66.1356 11.6999 24.6807C16.3521 10.0229 29.2304 0.439594 47.432 2.73175C61.954 4.55643 79.1 13.8156 93.0791 26.5355C107.352 39.5345 119.137 54.9236 136.125 59.885C140.09 61.0389 144.202 61.6103 148.332 61.5815Z" fill="#F37A20"/>
<path opacity="0.9" d="M148.332 61.5815C154.99 61.5815 161.15 60.2695 167.401 59.6588C178.001 58.7517 188.676 59.3354 199.114 61.393C213.259 64.0697 229.583 70.2449 243.02 83.5153C254.005 94.3578 260.693 107.779 264.132 120.13C267.674 132.695 268.4 145.887 266.258 158.765C264.637 168.242 261.462 176.928 256.215 183.647C232.667 211.168 140.295 201.81 116.581 192.235C41.1059 168.499 -1.4574 66.1356 11.6999 24.6807C16.3521 10.0229 29.2304 0.439594 47.432 2.73175C61.954 4.55643 79.1 13.8156 93.0791 26.5355C107.352 39.5345 119.137 54.9236 136.125 59.885C140.09 61.0389 144.202 61.6103 148.332 61.5815Z" fill="white"/>
<path d="M146.5 257.38C227.24 257.38 292.693 253.559 292.693 248.845C292.693 244.131 227.24 240.31 146.5 240.31C65.7598 240.31 0.306885 244.131 0.306885 248.845C0.306885 253.559 65.7598 257.38 146.5 257.38Z" fill="#F5F5F5"/>
<path d="M77.7954 243.039C78.3673 243.323 79.0277 243.372 79.6351 243.175C79.7234 243.105 79.788 243.01 79.8204 242.902C79.8528 242.794 79.8513 242.679 79.8161 242.572C79.7732 242.38 79.6568 242.212 79.4919 242.104C78.6172 241.524 76.2271 241.991 76.129 242.014C76.1 242.02 76.0736 242.035 76.0533 242.056C76.0331 242.078 76.02 242.105 76.0159 242.134C76.0128 242.162 76.0175 242.19 76.0295 242.216C76.0415 242.241 76.0603 242.262 76.0838 242.278C76.6304 242.582 77.2032 242.837 77.7954 243.039ZM79.0772 242.225C79.1673 242.254 79.2534 242.295 79.3335 242.346C79.3846 242.376 79.429 242.416 79.464 242.464C79.499 242.512 79.5239 242.567 79.5371 242.624C79.5748 242.828 79.5371 242.903 79.4617 242.941C79.0696 243.22 77.6144 242.738 76.5965 242.187C77.4182 242.041 78.2603 242.054 79.0772 242.225Z" fill="#F37A20"/>
<path d="M76.114 242.293H76.1743C76.966 242.21 78.753 241.425 78.8661 240.739C78.8661 240.581 78.8661 240.355 78.4815 240.189C78.3504 240.133 78.2094 240.104 78.0668 240.104C77.9243 240.104 77.7832 240.133 77.6521 240.189C76.7172 240.551 76.0536 242.051 76.0235 242.112C76.0122 242.134 76.0063 242.158 76.0063 242.183C76.0063 242.208 76.0122 242.233 76.0235 242.255C76.0494 242.276 76.0808 242.289 76.114 242.293ZM78.2855 240.43H78.3684C78.6022 240.536 78.5871 240.641 78.5795 240.671C78.5117 241.086 77.26 241.75 76.408 241.938C76.69 241.31 77.1586 240.783 77.7501 240.43C77.9226 240.365 78.113 240.365 78.2855 240.43Z" fill="#F37A20"/>
<path d="M75.4656 241.938H68.8379C68.7216 241.934 68.6081 241.975 68.521 242.052C68.434 242.129 68.38 242.237 68.3704 242.353L67.8426 247.752C67.8344 247.89 67.8544 248.028 67.9014 248.158C67.9484 248.288 68.0214 248.407 68.116 248.508C68.2105 248.609 68.3246 248.689 68.4513 248.745C68.578 248.8 68.7147 248.829 68.853 248.83C71.2432 248.792 74.6814 248.649 77.6823 248.649C81.196 248.649 81.4523 248.845 85.5767 248.845C88.0649 248.845 88.4419 246.327 87.3712 246.093C82.4928 245.052 81.4071 244.947 76.9886 242.413C76.5294 242.129 76.0053 241.965 75.4656 241.938Z" fill="#263238"/>
<path d="M45.3885 243.386C46.0396 243.461 46.696 243.298 47.2358 242.926C47.3112 242.842 47.3594 242.737 47.3742 242.626C47.389 242.514 47.3697 242.4 47.3187 242.3C47.2811 242.216 47.2249 242.142 47.1544 242.083C47.0838 242.024 47.0008 241.982 46.9115 241.961C45.9389 241.689 43.6467 242.896 43.5487 242.948C43.5212 242.962 43.4977 242.982 43.4805 243.007C43.4633 243.032 43.453 243.061 43.4507 243.092C43.4516 243.12 43.4616 243.147 43.4793 243.168C43.497 243.19 43.5214 243.206 43.5487 243.212C44.1556 243.325 44.7713 243.383 45.3885 243.386ZM46.5195 242.209C46.612 242.197 46.7059 242.197 46.7984 242.209C46.8538 242.22 46.9056 242.243 46.9492 242.279C46.9927 242.315 47.0264 242.361 47.0473 242.413C47.1227 242.586 47.0473 242.677 47.0473 242.73C46.708 243.122 45.1698 243.129 44.0313 242.971C44.8108 242.579 45.6529 242.326 46.5195 242.225V242.209Z" fill="#F37A20"/>
<path d="M43.5789 243.228H43.6392C44.3932 242.896 46.0671 241.584 46.052 240.898C46.052 240.74 45.9691 240.536 45.577 240.498C45.2801 240.472 44.9841 240.558 44.7476 240.74C44.1047 241.383 43.6576 242.197 43.4583 243.084C43.4462 243.104 43.4398 243.126 43.4398 243.149C43.4398 243.171 43.4462 243.193 43.4583 243.213C43.4762 243.223 43.4962 243.23 43.517 243.233C43.5378 243.235 43.5588 243.234 43.5789 243.228ZM45.4187 240.77H45.5091C45.758 240.77 45.7655 240.898 45.7655 240.928C45.7655 241.343 44.6345 242.376 43.8202 242.821C43.9977 242.11 44.3682 241.463 44.8909 240.951C45.042 240.834 45.2276 240.77 45.4187 240.77Z" fill="#F37A20"/>
<path d="M41.6109 241.938H34.9833C34.8619 241.94 34.7443 241.981 34.6489 242.056C34.5534 242.131 34.4854 242.236 34.4555 242.353L33.0983 247.752C33.0629 247.88 33.0581 248.015 33.0842 248.146C33.1104 248.276 33.1668 248.399 33.2489 248.504C33.331 248.609 33.4365 248.693 33.557 248.749C33.6775 248.806 33.8097 248.834 33.9428 248.83C36.333 248.792 39.7938 248.649 42.8023 248.649C46.3159 248.649 44.9285 248.845 49.0529 248.845C51.5411 248.845 52.3102 246.327 51.2697 246.093C46.5496 245.052 47.0925 244.947 43.0662 242.413C42.6345 242.123 42.1307 241.959 41.6109 241.938Z" fill="#263238"/>
<path d="M70.9792 88.2129C70.9792 88.2129 63.9369 134.848 61.1772 152.16C58.6514 168.19 48.3065 220.57 44.9361 236.758C44.7099 237.867 44.6496 238.892 44.0539 239.774C44.8532 240.8 44.2198 242.956 44.2198 242.956L33.6638 244.027C33.3309 243.607 33.0915 243.12 32.9614 242.6C32.8314 242.08 32.8138 241.538 32.9098 241.011C33.0154 240.257 34.0106 238.832 34.2142 236.359C35.5639 220.027 41.5657 175.285 43.0888 153.562C44.5214 133.166 50.0407 88.2204 50.0407 88.2204L70.9792 88.2129Z" fill="#F37A20"/>
<path opacity="0.3" d="M64.9774 111.436C57.9426 116.465 59.7974 137.773 60.9812 153.577C61.0566 153.079 61.1396 152.604 61.2074 152.152C62.7154 142.704 65.4675 124.488 67.6843 109.928C67.3299 109.792 65.3393 111.179 64.9774 111.436Z" fill="black"/>
<path d="M82.5004 88.2129C82.5004 88.2129 82.048 133.604 81.5277 152.122C81.0603 168.491 81.015 221.957 77.6748 237.181C77.3355 238.734 78.1272 239.043 77.9764 239.661C77.925 239.875 77.8847 240.092 77.8558 240.31C77.7984 240.724 77.615 241.11 77.3303 241.417C77.0457 241.723 76.6737 241.934 76.2648 242.021L68.5288 243.771C68.2003 243.845 67.8559 243.79 67.5668 243.617C67.2776 243.445 67.0659 243.168 66.9755 242.843C66.7375 241.833 66.6411 240.796 66.689 239.759C66.689 238.915 67.0886 237.143 67.0359 236.125C66.018 217.004 63.477 168.642 63.002 153.585C62.3535 132.97 61.1547 88.2129 61.1547 88.2129H82.5004Z" fill="#F37A20"/>
<path d="M53.3583 44.6619C52.2575 46.6977 51.0963 48.8542 50.0256 50.9654C48.9549 53.0766 47.8541 55.233 46.8211 57.3744C46.3084 58.445 45.8032 59.5157 45.3131 60.5939C44.823 61.6722 44.348 62.7428 43.8956 63.8135C43.0162 65.9094 42.2436 68.0484 41.5808 70.2225L38.0823 65.1255C38.7473 65.288 39.4223 65.4064 40.103 65.4799C40.7977 65.5443 41.4969 65.5443 42.1916 65.4799C42.9226 65.4363 43.6475 65.3201 44.3555 65.133C44.7175 65.0425 45.1095 64.937 45.4488 64.8163C45.6223 64.756 45.8108 64.6957 45.9766 64.6278L46.2405 64.5374L46.3536 64.4921C46.3536 64.4921 46.4366 64.4921 46.429 64.4921C46.848 64.0562 47.4229 63.8045 48.0274 63.7925C48.6319 63.7805 49.2165 64.0091 49.6524 64.428C50.0883 64.847 50.34 65.4219 50.352 66.0264C50.364 66.6309 50.1354 67.2154 49.7165 67.6514L49.3923 68.0887C49.2942 68.2169 49.2038 68.3451 49.1057 68.4582C48.9097 68.6919 48.7137 68.903 48.5101 69.1292C47.266 70.4172 45.7765 71.4427 44.1293 72.1452C43.0123 72.626 41.8395 72.9654 40.6383 73.1556C39.4352 73.3538 38.2137 73.417 36.9965 73.3441C36.491 73.3209 35.995 73.1983 35.5369 72.9834C35.0788 72.7684 34.6675 72.4654 34.3265 72.0915C33.9856 71.7176 33.7216 71.2802 33.5496 70.8043C33.3777 70.3283 33.3012 69.8232 33.3245 69.3177C33.3363 69.1123 33.364 68.9081 33.4075 68.707L33.5055 68.2546C34.0727 65.6791 34.8056 63.1429 35.6996 60.6618C36.5441 58.2264 37.5092 55.8814 38.5196 53.5591C39.5299 51.2368 40.6157 48.9748 41.7392 46.7731C42.8626 44.5714 44.0012 42.3471 45.3508 40.1077C45.6479 39.581 46.0458 39.1179 46.5218 38.7449C46.9978 38.3719 47.5426 38.0963 48.1252 37.9339C48.7077 37.7714 49.3165 37.7253 49.9169 37.7982C50.5172 37.871 51.0973 38.0614 51.6241 38.3585C52.1509 38.6555 52.614 39.0534 52.987 39.5294C53.36 40.0055 53.6355 40.5503 53.798 41.1328C53.9604 41.7153 54.0065 42.3242 53.9337 42.9245C53.8608 43.5249 53.6704 44.105 53.3734 44.6317L53.3583 44.6619Z" fill="#FFC3BD"/>
<path d="M45.5242 65.0802L49.0831 62.3281L52.0991 68.6466C52.0991 68.6466 49.166 70.4487 46.429 69.4006L45.5242 65.0802Z" fill="#FFC3BD"/>
<path d="M54.2933 58.8066L55.8163 64.8311L52.0765 68.6463L49.0831 62.3278L54.2933 58.8066Z" fill="#FFC3BD"/>
<path d="M76.2196 14.9995C76.2196 15.4896 76.4081 15.9119 76.7248 15.9421C77.0415 15.9722 77.3355 15.5952 77.3732 15.1051C77.4109 14.615 77.1923 14.2003 76.8681 14.1701C76.5438 14.14 76.2573 14.517 76.2196 14.9995Z" fill="#263238"/>
<path d="M76.3779 15.9043C76.835 17.4485 77.5023 18.9226 78.361 20.285C78.007 20.4939 77.6115 20.6224 77.2023 20.6615C76.7932 20.7006 76.3805 20.6493 75.9934 20.5112L76.3779 15.9043Z" fill="#ED847E"/>
<path d="M107.292 43.4175L107.005 36.541L99.7519 38.5994C99.8873 39.7711 100.28 40.8985 100.902 41.9008C101.523 42.9032 102.359 43.7558 103.348 44.3977L107.292 43.4175Z" fill="#FFC3BD"/>
<path d="M104.532 31.5571L98.3344 34.9954L99.7745 38.5995L107.013 36.5411L104.532 31.5571Z" fill="#FFC3BD"/>
<path d="M104.419 27.9982H97.7764C97.6102 28.0011 97.4508 28.0648 97.3285 28.1774C97.2062 28.29 97.1295 28.4435 97.1129 28.6089L95.8839 41.3817C95.8754 41.4589 95.8833 41.537 95.9071 41.6109C95.9309 41.6848 95.9701 41.7528 96.0221 41.8105C96.0741 41.8682 96.1377 41.9142 96.2087 41.9456C96.2798 41.9769 96.3566 41.9929 96.4343 41.9924H103.069C103.236 41.9882 103.396 41.9241 103.519 41.812C103.642 41.6999 103.721 41.5471 103.741 41.3817L104.962 28.6089C104.973 28.532 104.967 28.4535 104.945 28.379C104.922 28.3045 104.884 28.2359 104.832 28.1777C104.78 28.1196 104.717 28.0734 104.645 28.0424C104.574 28.0114 104.497 27.9963 104.419 27.9982Z" fill="#F37A20"/>
<path d="M103.959 27.9982H97.324C97.1578 28.001 96.9984 28.0648 96.8761 28.1774C96.7538 28.29 96.6771 28.4435 96.6605 28.6089L95.4315 41.3817C95.423 41.4589 95.4309 41.537 95.4547 41.6109C95.4785 41.6848 95.5177 41.7528 95.5697 41.8105C95.6217 41.8682 95.6853 41.9142 95.7563 41.9456C95.8274 41.9769 95.9042 41.9929 95.9819 41.9924H102.617C102.783 41.9879 102.941 41.9236 103.063 41.8114C103.185 41.6991 103.262 41.5464 103.281 41.3817L104.51 28.6089C104.519 28.5315 104.512 28.4529 104.489 28.3784C104.466 28.304 104.427 28.2355 104.374 28.1775C104.322 28.1195 104.258 28.0735 104.186 28.0426C104.115 28.0116 104.037 27.9965 103.959 27.9982Z" fill="#F37A20"/>
<path d="M95.9819 41.7287C95.9422 41.73 95.9028 41.7225 95.8663 41.7069C95.8298 41.6913 95.7972 41.6678 95.7708 41.6382C95.744 41.6075 95.7242 41.5715 95.7125 41.5325C95.7008 41.4935 95.6975 41.4524 95.7029 41.412L96.9319 28.6393C96.9428 28.5379 96.9901 28.4438 97.0649 28.3745C97.1397 28.3052 97.2371 28.2653 97.3391 28.2623H103.974C104.013 28.2614 104.052 28.2683 104.088 28.2826C104.124 28.2968 104.157 28.3181 104.185 28.3452C104.211 28.3764 104.231 28.4125 104.242 28.4514C104.254 28.4903 104.258 28.5311 104.253 28.5714L103.024 41.3894C103.013 41.4908 102.966 41.5849 102.891 41.6542C102.816 41.7235 102.719 41.7634 102.617 41.7664L95.9819 41.7287Z" fill="white"/>
<path d="M102.248 34.9424C102.188 35.5805 101.904 36.1766 101.445 36.6242C100.987 37.0718 100.384 37.3416 99.7444 37.3854C99.4484 37.3908 99.1547 37.3317 98.884 37.2121C98.6132 37.0924 98.3717 36.9151 98.1765 36.6926C97.9812 36.4701 97.8369 36.2077 97.7535 35.9236C97.67 35.6396 97.6496 35.3408 97.6935 35.048C97.7528 34.4099 98.0373 33.8138 98.4959 33.3662C98.9545 32.9186 99.5574 32.6488 100.197 32.605C100.493 32.5982 100.787 32.6565 101.059 32.7757C101.33 32.8949 101.572 33.0722 101.768 33.295C101.963 33.5179 102.108 33.7809 102.19 34.0655C102.273 34.3501 102.293 34.6495 102.248 34.9424Z" fill="#F37A20"/>
<path d="M105.889 38.4564C104.564 36.8662 103.418 35.134 102.474 33.2915C102.085 33.4687 101.776 33.7824 101.603 34.173C101.431 34.5636 101.408 35.0039 101.539 35.4102C101.818 36.2472 102.881 38.4262 102.881 38.4262C102.881 38.4262 102.368 41.0426 103.333 42.8673C104.299 44.692 105.889 38.4564 105.889 38.4564Z" fill="#FFC3BD"/>
<path d="M74.6587 12.1342C74.5902 12.1121 74.5315 12.0668 74.4928 12.006C74.4726 11.9741 74.4591 11.9384 74.453 11.9011C74.447 11.8638 74.4486 11.8256 74.4578 11.789C74.467 11.7523 74.4835 11.7179 74.5064 11.6878C74.5292 11.6577 74.558 11.6326 74.5909 11.6139C74.9772 11.3693 75.4172 11.2222 75.873 11.1854C76.3288 11.1486 76.7867 11.2232 77.2072 11.4028C77.2416 11.4188 77.2724 11.4417 77.2976 11.47C77.3229 11.4983 77.3421 11.5315 77.3541 11.5675C77.3661 11.6035 77.3706 11.6416 77.3674 11.6794C77.3642 11.7172 77.3533 11.7539 77.3354 11.7874C77.3015 11.8534 77.2432 11.9037 77.1728 11.9277C77.1025 11.9516 77.0256 11.9472 76.9584 11.9155C76.623 11.7786 76.2595 11.7242 75.8987 11.757C75.5379 11.7899 75.1902 11.9089 74.8849 12.104C74.8519 12.1257 74.8144 12.1396 74.7752 12.1448C74.7361 12.1501 74.6963 12.1464 74.6587 12.1342Z" fill="#263238"/>
<path d="M60.2121 20.4883C61.1169 24.9293 61.6824 31.082 58.5985 34.0603C58.5985 34.0603 59.8502 38.5843 68.0989 38.5843C77.1469 38.5843 72.4344 34.6333 72.4344 34.6333C68.6644 33.4571 68.6644 29.1593 69.4938 25.7135L60.2121 20.4883Z" fill="#FFC3BD"/>
<path d="M56.9247 37.0161C56.1029 35.8775 56.1104 32.2583 56.97 31.6174C58.3573 30.592 64.3139 30.3507 72.3516 32.198C71.5146 35.7041 73.3619 37.5439 73.3619 37.5439L56.9247 37.0161Z" fill="#F37A20"/>
<path d="M47.7259 35.425C42.0407 36.7294 38.2255 51.9075 38.2255 51.9075L48.9473 59.9602C51.8878 56.808 53.9495 52.9393 54.9266 48.7407C56.8417 41.1253 53.5467 34.0904 47.7259 35.425Z" fill="#263238"/>
<path opacity="0.1" d="M47.7259 35.425C42.0407 36.7294 38.2255 51.9075 38.2255 51.9075L48.9473 59.9602C51.8878 56.808 53.9495 52.9393 54.9266 48.7407C56.8417 41.1253 53.5467 34.0904 47.7259 35.425Z" fill="white"/>
<path d="M81.2261 39.8062C84.3477 43.2821 87.3184 46.8033 90.2741 50.2264C91.7821 51.938 93.2901 53.627 94.7981 55.2254C96.1872 56.7581 97.6866 58.187 99.2844 59.5006C99.588 59.7446 99.9052 59.9712 100.234 60.1792C100.483 60.3451 100.709 60.4054 100.468 60.3753C100.181 60.3509 99.8918 60.3816 99.6162 60.4657C99.3792 60.5372 99.1534 60.6412 98.9451 60.7749C98.7958 60.8647 98.6589 60.9737 98.538 61.0991C98.4701 61.2197 98.636 61.0991 98.7868 60.8126C99.2105 60.0689 99.5422 59.2764 99.7745 58.4526C100.061 57.5025 100.325 56.4846 100.529 55.4366C101.426 51.2142 102.037 46.6374 102.564 42.1586L107.126 42.0531C107.827 46.8195 108.029 51.6461 107.729 56.4545C107.64 57.7189 107.481 58.9774 107.254 60.2245C107.008 61.6656 106.593 63.0727 106.018 64.4167C105.597 65.3602 105.018 66.2247 104.306 66.9728C103.987 67.3082 103.624 67.5998 103.228 67.8399C102.774 68.1249 102.281 68.3432 101.765 68.4883C100.928 68.7183 100.052 68.7697 99.1939 68.6391C98.1404 68.4766 97.1212 68.1402 96.1779 67.6438C95.4988 67.2891 94.8416 66.8938 94.21 66.46C92.1386 64.958 90.1897 63.294 88.3816 61.4836C86.6474 59.7871 85.0187 58.0605 83.4203 56.3338C80.2459 52.8579 77.2299 49.3292 74.2592 45.8457L81.2261 39.8062Z" fill="#FFC3BD"/>
<path opacity="0.4" d="M52.6948 46.1021C49.626 49.1633 48.6609 54.7353 48.4573 59.576L48.9625 59.9606C51.9006 56.8067 53.962 52.9386 54.9417 48.7411C55.0548 48.2887 55.1528 47.8287 55.2357 47.3838L52.6948 46.1021Z" fill="#263238"/>
<path d="M37.8259 51.116L37.6072 51.6966C37.5547 51.8647 37.557 52.0453 37.614 52.212C37.6709 52.3788 37.7795 52.5231 37.9239 52.624L48.1783 60.3826C48.3478 60.5105 48.5603 60.5678 48.7711 60.5425C48.982 60.5172 49.1748 60.4113 49.3093 60.2469V60.1941C49.3767 60.111 49.4271 60.0154 49.4575 59.9128C49.4879 59.8101 49.4978 59.7025 49.4866 59.5961C49.4754 59.4896 49.4433 59.3864 49.3922 59.2924C49.3411 59.1984 49.2719 59.1153 49.1887 59.0481L39.1152 50.7541C39.0138 50.6701 38.8936 50.6119 38.7648 50.5846C38.636 50.5573 38.5025 50.5616 38.3757 50.5972C38.249 50.6328 38.1327 50.6986 38.037 50.7889C37.9412 50.8793 37.8688 50.9915 37.8259 51.116Z" fill="#F37A20"/>
<path d="M83.7445 41.5098C85.0338 48.0696 86.1648 71.1948 82.7567 97.8713H48.1934C47.937 92.8874 52.7174 58.9122 47.741 35.4251C51.3263 34.7293 54.9532 34.2683 58.5986 34.0452C63.1966 33.7772 67.8063 33.7772 72.4043 34.0452C73.9123 34.181 75.4203 34.3996 76.7549 34.6334C78.4769 34.9423 80.0656 35.7641 81.3127 36.9911C82.5599 38.218 83.4075 39.793 83.7445 41.5098Z" fill="#263238"/>
<path opacity="0.1" d="M83.7445 41.5098C85.0338 48.0696 86.1648 71.1948 82.7567 97.8713H48.1934C47.937 92.8874 52.7174 58.9122 47.741 35.4251C51.3263 34.7293 54.9532 34.2683 58.5986 34.0452C63.1966 33.7772 67.8063 33.7772 72.4043 34.0452C73.9123 34.181 75.4203 34.3996 76.7549 34.6334C78.4769 34.9423 80.0656 35.7641 81.3127 36.9911C82.5599 38.218 83.4075 39.793 83.7445 41.5098Z" fill="white"/>
<path opacity="0.4" d="M84.6719 50.3618L79.3486 51.6361C79.032 55.6474 82.3194 60.2995 85.0037 63.3759C85.0263 58.3768 84.8981 53.9659 84.6719 50.3618Z" fill="#263238"/>
<path d="M60.0311 12.5038C59.9029 18.5358 59.5184 22.0419 62.2931 25.3896C66.4627 30.4263 74.0857 28.3453 76.0084 22.4943C77.7426 17.2163 77.6672 8.26627 71.9971 5.35583C70.7588 4.7023 69.3732 4.37846 67.9736 4.41545C66.5739 4.45244 65.2074 4.84902 64.0054 5.56705C62.8033 6.28507 61.8064 7.30036 61.1103 8.51523C60.4143 9.73011 60.0426 11.1037 60.0311 12.5038Z" fill="#FFC3BD"/>
<path d="M73.0452 17.0051C73.0452 17.0051 75.4354 18.9278 75.4806 15.9042C75.5581 14.4536 75.4492 12.9991 75.1564 11.5763C75.1564 11.5763 76.7021 11.4782 76.5664 8.9071C76.4307 6.33596 72.5023 2.46795 66.3723 3.41799C60.2423 4.36803 60.657 7.42926 60.657 7.42926C60.657 7.42926 54.9793 7.79119 58.1763 17.0051C60.4986 23.7081 60.853 24.9296 60.853 24.9296C60.853 24.9296 66.5155 26.1285 67.7747 24.824C69.0339 23.5196 70.655 16.1681 73.0452 17.0051Z" fill="#263238"/>
<path d="M58.9077 11.154C53.019 14.17 48.2085 18.9127 60.3252 18.8976C72.442 18.8825 75.5259 9.84961 75.5259 9.84961L58.9077 11.154Z" fill="#F37A20"/>
<path opacity="0.2" d="M58.9077 11.154C53.019 14.17 48.2085 18.9127 60.3252 18.8976C72.442 18.8825 75.5259 9.84961 75.5259 9.84961L58.9077 11.154Z" fill="white"/>
<path d="M76.8002 8.7336C76.0462 10.1436 72.8567 12.7901 70.7229 14.0116C68.5891 15.2331 64.2159 15.6553 62.5496 15.595C60.8832 15.5347 57.362 15.1426 56.9172 14.0116C56.4723 12.8806 56.5176 9.4876 56.6608 7.301C56.8041 5.1144 62.8059 1.269 65.1961 0.763823C67.5863 0.258643 72.7361 1.7591 74.2441 3.10876C75.7521 4.45842 76.8002 8.7336 76.8002 8.7336Z" fill="#F37A20"/>
<path d="M69.6975 15.678C69.6909 17.1765 70.1755 18.6358 71.0773 19.8326C72.2837 21.3933 73.7389 20.5866 74.0933 18.8674C74.4326 17.2916 74.2139 14.5847 72.6607 13.6422C71.1074 12.6997 69.7276 13.8835 69.6975 15.678Z" fill="#FFC3BD"/>
<path d="M71.032 43.5006C68.1743 51.3497 85.8933 60.8426 85.8933 60.8426L92.6793 51.0406C92.6793 51.0406 87.6879 41.2386 81.5729 36.79C74.048 31.331 73.2035 37.544 71.032 43.5006Z" fill="#263238"/>
<path opacity="0.1" d="M71.032 43.5006C68.1743 51.3497 85.8933 60.8426 85.8933 60.8426L92.6793 51.0406C92.6793 51.0406 87.6879 41.2386 81.5729 36.79C74.048 31.331 73.2035 37.544 71.032 43.5006Z" fill="white"/>
<path d="M92.8075 50.1963L93.1921 50.7015C93.2962 50.8436 93.3524 51.0153 93.3524 51.1916C93.3524 51.3678 93.2962 51.5395 93.1921 51.6817L86.3533 60.9634C86.2367 61.1229 86.0661 61.2345 85.8733 61.2775C85.6804 61.3205 85.4786 61.2919 85.3052 61.1971L85.1997 61.1368C85.0985 61.0834 85.0098 61.0092 84.9392 60.9192C84.8687 60.8292 84.8179 60.7253 84.7901 60.6143C84.7624 60.5034 84.7583 60.3878 84.7782 60.2752C84.7981 60.1625 84.8415 60.0553 84.9056 59.9606L91.4654 50.234C91.5383 50.1244 91.6364 50.034 91.7514 49.9702C91.8665 49.9064 91.9952 49.8712 92.1267 49.8675C92.2582 49.8638 92.3887 49.8918 92.5072 49.949C92.6257 50.0062 92.7287 50.091 92.8075 50.1963Z" fill="#F37A20"/>
<path d="M245.802 20.7674H139.887C137.278 20.8051 134.778 21.8235 132.885 23.6201C130.992 25.4167 129.845 27.8598 129.671 30.4638L118.692 234.338C118.614 235.588 118.793 236.84 119.22 238.018C119.646 239.195 120.31 240.273 121.171 241.182C122.032 242.092 123.071 242.814 124.223 243.305C125.375 243.796 126.616 244.044 127.869 244.034H233.783C236.393 243.998 238.894 242.98 240.787 241.184C242.68 239.387 243.827 236.942 244 234.338L254.978 30.4789C255.059 29.2278 254.881 27.9735 254.455 26.7942C254.03 25.6149 253.366 24.5359 252.505 23.6246C251.644 22.7134 250.604 21.9893 249.451 21.4977C248.298 21.0061 247.055 20.7575 245.802 20.7674Z" fill="#263238"/>
<path d="M154.756 18.1284H149.531V18.8824H154.756V18.1284Z" fill="#F37A20"/>
<path d="M127.424 25.02L126.768 24.643C127.897 22.6801 129.519 21.0464 131.474 19.9036C133.428 18.7609 135.648 18.149 137.912 18.1284H146.146V18.8824H137.912C135.78 18.9027 133.691 19.4798 131.852 20.5564C130.012 21.633 128.486 23.1717 127.424 25.02Z" fill="#F37A20"/>
<path d="M243.826 20.7674H137.912C135.302 20.8051 132.803 21.8235 130.91 23.6201C129.017 25.4167 127.869 27.8598 127.695 30.4638L116.725 234.338C116.645 235.587 116.823 236.84 117.249 238.017C117.674 239.195 118.338 240.272 119.198 241.182C120.058 242.092 121.097 242.814 122.249 243.305C123.401 243.796 124.641 244.044 125.893 244.034H231.815C234.424 243.996 236.923 242.978 238.814 241.181C240.706 239.384 241.852 236.941 242.024 234.338L253.002 30.4789C253.083 29.2278 252.905 27.9735 252.48 26.7942C252.054 25.6149 251.39 24.5359 250.529 23.6246C249.668 22.7134 248.629 21.9893 247.475 21.4977C246.322 21.0061 245.08 20.7575 243.826 20.7674Z" fill="#F37A20"/>
<path d="M125.984 242.406C124.941 242.416 123.906 242.211 122.946 241.804C121.986 241.397 121.12 240.796 120.402 240.038C119.685 239.281 119.131 238.384 118.776 237.403C118.421 236.423 118.272 235.379 118.338 234.338L129.309 30.4639C129.451 28.2936 130.406 26.2567 131.984 24.7598C133.562 23.2629 135.647 22.4162 137.821 22.3886H243.766C244.81 22.3781 245.845 22.5831 246.805 22.9909C247.766 23.3987 248.633 24.0004 249.35 24.7584C250.068 25.5164 250.621 26.4144 250.976 27.3961C251.331 28.3779 251.479 29.4222 251.412 30.4639L240.411 234.338C240.27 236.51 239.316 238.548 237.738 240.047C236.159 241.545 234.074 242.393 231.898 242.421L125.984 242.406Z" fill="white"/>
<path opacity="0.2" d="M130.485 102.011L133.72 41.9923C133.792 40.8342 134.297 39.7458 135.135 38.9437C135.974 38.1416 137.084 37.6849 138.244 37.6643H241.617C242.177 37.6579 242.731 37.7672 243.247 37.9855C243.762 38.2039 244.226 38.5264 244.611 38.9329C244.995 39.3393 245.292 39.821 245.481 40.3475C245.67 40.874 245.749 41.434 245.711 41.9923L242.477 102.011C242.405 103.169 241.899 104.257 241.061 105.059C240.222 105.861 239.113 106.318 237.953 106.339H134.579C134.02 106.345 133.465 106.236 132.95 106.017C132.435 105.799 131.97 105.477 131.586 105.07C131.201 104.664 130.905 104.182 130.715 103.655C130.526 103.129 130.448 102.569 130.485 102.011Z" fill="#F37A20"/>
<path d="M193.565 29.8834H187.533C186.731 29.8919 185.952 29.6246 185.324 29.1262C184.697 28.6278 184.26 27.9288 184.087 27.1464L182.85 21.6045H198.737L197.35 26.8825C197.134 27.7278 196.647 28.479 195.963 29.0211C195.279 29.5631 194.437 29.866 193.565 29.8834Z" fill="#F37A20"/>
<path opacity="0.5" d="M192.577 25.7437C192.543 26.2746 192.309 26.7731 191.924 27.1394C191.538 27.5056 191.028 27.7127 190.496 27.7192C190.241 27.7218 189.987 27.6717 189.752 27.572C189.517 27.4722 189.305 27.325 189.13 27.1396C188.954 26.9541 188.819 26.7344 188.732 26.4942C188.646 26.2541 188.609 25.9986 188.626 25.7437C188.66 25.2128 188.893 24.7144 189.279 24.3481C189.665 23.9819 190.175 23.7748 190.707 23.7683C190.963 23.7645 191.216 23.8139 191.452 23.9132C191.687 24.0126 191.9 24.1598 192.076 24.3455C192.251 24.5312 192.387 24.7513 192.473 24.992C192.559 25.2327 192.595 25.4887 192.577 25.7437Z" fill="white"/>
<path d="M208.449 174.855H157.358C157.253 174.855 157.153 174.815 157.077 174.744C157.002 174.672 156.956 174.574 156.95 174.47L155.322 138.391C155.321 138.337 155.33 138.283 155.35 138.232C155.37 138.182 155.4 138.135 155.438 138.096C155.476 138.057 155.521 138.025 155.571 138.004C155.621 137.982 155.674 137.97 155.729 137.969H213.96C214.019 137.969 214.077 137.982 214.131 138.006C214.184 138.031 214.232 138.067 214.269 138.113C214.308 138.156 214.336 138.208 214.352 138.264C214.368 138.32 214.37 138.379 214.36 138.437L208.848 174.516C208.832 174.61 208.783 174.696 208.71 174.758C208.637 174.82 208.544 174.854 208.449 174.855ZM157.742 174.018H208.102L213.493 138.746H156.151L157.742 174.018Z" fill="#F37A20"/>
<path d="M205.908 182.146H161.293C161.236 182.154 161.177 182.149 161.121 182.133C161.066 182.116 161.014 182.088 160.971 182.05C160.927 182.011 160.892 181.964 160.868 181.911C160.843 181.858 160.831 181.801 160.831 181.743C160.831 181.685 160.843 181.627 160.868 181.574C160.892 181.521 160.927 181.474 160.971 181.436C161.014 181.398 161.066 181.369 161.121 181.353C161.177 181.336 161.236 181.331 161.293 181.339H205.908C206.229 181.332 206.538 181.212 206.779 180.999C207.021 180.787 207.179 180.496 207.227 180.178L213.975 135.398C213.991 135.303 214.04 135.216 214.113 135.153C214.186 135.089 214.278 135.053 214.375 135.051H217.278C217.386 135.051 217.49 135.094 217.566 135.171C217.642 135.247 217.685 135.35 217.685 135.458C217.685 135.566 217.642 135.67 217.566 135.746C217.49 135.823 217.386 135.866 217.278 135.866H214.722L208.026 180.299C207.952 180.809 207.698 181.276 207.309 181.615C206.921 181.954 206.423 182.142 205.908 182.146Z" fill="#F37A20"/>
<path d="M164.686 189.746C164.14 189.751 163.598 189.644 163.095 189.43C162.592 189.217 162.138 188.901 161.762 188.504C161.386 188.107 161.097 187.637 160.911 187.123C160.725 186.609 160.647 186.062 160.683 185.516C160.757 184.392 161.252 183.338 162.07 182.564C162.888 181.789 163.967 181.352 165.094 181.339C165.639 181.334 166.18 181.441 166.682 181.654C167.185 181.868 167.638 182.182 168.013 182.579C168.388 182.975 168.677 183.445 168.862 183.958C169.048 184.471 169.125 185.017 169.09 185.561C169.018 186.685 168.524 187.741 167.708 188.516C166.892 189.292 165.813 189.731 164.686 189.746ZM165.094 182.146C164.173 182.157 163.291 182.515 162.623 183.148C161.955 183.781 161.55 184.643 161.49 185.561C161.459 185.997 161.52 186.435 161.667 186.846C161.815 187.257 162.046 187.633 162.347 187.95C162.648 188.266 163.011 188.517 163.413 188.687C163.816 188.856 164.25 188.939 164.686 188.932C165.606 188.92 166.487 188.562 167.154 187.929C167.821 187.296 168.224 186.434 168.283 185.516C168.313 185.081 168.253 184.644 168.106 184.234C167.959 183.823 167.728 183.448 167.428 183.131C167.128 182.814 166.766 182.563 166.364 182.393C165.962 182.224 165.53 182.14 165.094 182.146Z" fill="#F37A20"/>
<path d="M203.57 189.746C203.024 189.75 202.483 189.642 201.981 189.428C201.479 189.214 201.026 188.898 200.651 188.501C200.276 188.105 199.987 187.635 199.802 187.121C199.616 186.607 199.539 186.061 199.574 185.516C199.645 184.392 200.138 183.337 200.955 182.562C201.772 181.787 202.852 181.35 203.977 181.339C204.523 181.334 205.065 181.441 205.567 181.654C206.07 181.868 206.523 182.182 206.899 182.578C207.275 182.975 207.564 183.444 207.751 183.957C207.937 184.47 208.015 185.017 207.981 185.561C207.907 186.686 207.412 187.741 206.595 188.517C205.777 189.293 204.697 189.731 203.57 189.746ZM203.977 182.146C203.057 182.155 202.175 182.513 201.508 183.147C200.841 183.78 200.438 184.643 200.381 185.561C200.351 185.997 200.411 186.433 200.558 186.844C200.705 187.254 200.936 187.63 201.236 187.947C201.536 188.264 201.898 188.515 202.3 188.684C202.701 188.854 203.134 188.938 203.57 188.932C204.491 188.921 205.373 188.563 206.041 187.93C206.709 187.296 207.114 186.435 207.174 185.516C207.205 185.08 207.144 184.643 206.997 184.232C206.849 183.821 206.618 183.445 206.317 183.128C206.016 182.811 205.653 182.56 205.25 182.391C204.848 182.222 204.414 182.139 203.977 182.146Z" fill="#F37A20"/>
<path d="M170.522 109.061C162.817 109.061 154.854 108.902 147.05 108.488C147.001 108.486 146.952 108.474 146.907 108.453C146.862 108.432 146.822 108.403 146.788 108.367C146.755 108.33 146.728 108.287 146.711 108.241C146.694 108.194 146.686 108.145 146.688 108.095C146.694 107.995 146.739 107.9 146.814 107.833C146.889 107.765 146.987 107.729 147.088 107.734C179.51 109.445 214.865 106.829 221.621 106.286C221.721 106.278 221.82 106.31 221.896 106.375C221.973 106.44 222.02 106.533 222.028 106.633C222.036 106.733 222.004 106.832 221.939 106.908C221.874 106.984 221.781 107.032 221.681 107.04C216.539 107.455 194.877 109.061 170.522 109.061Z" fill="white"/>
<path d="M177.007 122.829L185.301 129.924L194.349 122.829H177.007Z" fill="#F37A20"/>
<path d="M191.341 227.691C197.759 221.443 198.163 211.448 192.243 205.367C186.323 199.286 176.321 199.421 169.903 205.669C163.485 211.917 163.081 221.912 169 227.993C174.92 234.074 184.922 233.939 191.341 227.691Z" fill="#FF5552"/>
<path d="M187.3 210.71C187.113 210.523 186.859 210.418 186.595 210.418C186.33 210.418 186.077 210.523 185.89 210.71L181 215.59L176.11 210.7C175.923 210.513 175.669 210.408 175.405 210.408C175.14 210.408 174.887 210.513 174.7 210.7C174.31 211.09 174.31 211.72 174.7 212.11L179.59 217L174.7 221.89C174.31 222.28 174.31 222.91 174.7 223.3C175.09 223.69 175.72 223.69 176.11 223.3L181 218.41L185.89 223.3C186.28 223.69 186.91 223.69 187.3 223.3C187.69 222.91 187.69 222.28 187.3 221.89L182.41 217L187.3 212.11C187.68 211.73 187.68 211.09 187.3 210.71Z" fill="white"/>
</svg>
