<svg width="26" height="27" viewBox="0 0 26 27" fill="none" xmlns="http://www.w3.org/2000/svg">
<g filter="url(#filter0_d_731_197)">
<path fill-rule="evenodd" clip-rule="evenodd" d="M11 10.834H5C4.45 10.834 4 10.384 4 9.83398V1.83398C4 1.28398 4.45 0.833984 5 0.833984H11C11.55 0.833984 12 1.28398 12 1.83398V9.83398C12 10.384 11.55 10.834 11 10.834ZM20 10.834H16V16.834H20V10.834ZM5 18.834H11C11.55 18.834 12 18.384 12 17.834V13.834C12 13.284 11.55 12.834 11 12.834H5C4.45 12.834 4 13.284 4 13.834V17.834C4 18.384 4.45 18.834 5 18.834ZM10 16.834V14.834H6V16.834H10ZM15 18.834H21C21.55 18.834 22 18.384 22 17.834V9.83398C22 9.28398 21.55 8.83398 21 8.83398H15C14.45 8.83398 14 9.28398 14 9.83398V17.834C14 18.384 14.45 18.834 15 18.834ZM10 8.83398V2.83398H6V8.83398H10ZM14 1.83398V5.83398C14 6.38398 14.45 6.83398 15 6.83398H21C21.55 6.83398 22 6.38398 22 5.83398V1.83398C22 1.28398 21.55 0.833984 21 0.833984H15C14.45 0.833984 14 1.28398 14 1.83398ZM20 4.83398V2.83398H16V4.83398H20Z" fill="#37474F"/>
</g>
<defs>
<filter id="filter0_d_731_197" x="0" y="0.833984" width="26" height="26" filterUnits="userSpaceOnUse" color-interpolation-filters="sRGB">
<feFlood flood-opacity="0" result="BackgroundImageFix"/>
<feColorMatrix in="SourceAlpha" type="matrix" values="0 0 0 0 0 0 0 0 0 0 0 0 0 0 0 0 0 0 127 0" result="hardAlpha"/>
<feOffset dy="4"/>
<feGaussianBlur stdDeviation="2"/>
<feComposite in2="hardAlpha" operator="out"/>
<feColorMatrix type="matrix" values="0 0 0 0 0 0 0 0 0 0 0 0 0 0 0 0 0 0 0.25 0"/>
<feBlend mode="normal" in2="BackgroundImageFix" result="effect1_dropShadow_731_197"/>
<feBlend mode="normal" in="SourceGraphic" in2="effect1_dropShadow_731_197" result="shape"/>
</filter>
</defs>
</svg>
