<svg width="18" height="13" viewBox="0 0 18 13" fill="none" xmlns="http://www.w3.org/2000/svg">
<path fill-rule="evenodd" clip-rule="evenodd" d="M1 2.83398C0.45 2.83398 0 2.38398 0 1.83398C0 1.28398 0.45 0.833984 1 0.833984H17C17.55 0.833984 18 1.28398 18 1.83398C18 2.38398 17.55 2.83398 17 2.83398H1ZM1 7.83398H17C17.55 7.83398 18 7.38398 18 6.83398C18 6.28398 17.55 5.83398 17 5.83398H1C0.45 5.83398 0 6.28398 0 6.83398C0 7.38398 0.45 7.83398 1 7.83398ZM1 12.834H17C17.55 12.834 18 12.384 18 11.834C18 11.284 17.55 10.834 17 10.834H1C0.45 10.834 0 11.284 0 11.834C0 12.384 0.45 12.834 1 12.834Z" fill="#37474F"/>
</svg>
